# xmcd CD database file
#
# Track frame offsets:
#	150
#	68562
#	104077
#	189740
#	263110
#	313535
#
# Disc length: 4622 seconds
#
# Revision: 3
# Processed by: cddbd v1.4PL0 Copyright (c) Steve Scherf et al.
# Submitted via: CDex 1.50
#
DISCID=52120c06
DTITLE=Branford Marsalis - Bloomington
DYEAR=1993
DGENRE=Jazz
TTITLE0=Xavier's Lair
TTITLE1=Everything Happens To Me
TTITLE2=The Beautyful Ones
TTITLE3=Citizen Tain
TTITLE4=Friday The 13th
TTITLE5=Roused About
EXTD=YEAR: 1993
EXTT0=
EXTT1=
EXTT2=
EXTT3=
EXTT4=
EXTT5=
PLAYORDER=
